<svg xmlns="http://www.w3.org/2000/svg" width="32" height="32" xmlns:v="https://vecta.io/nano"><path d="M3.543 4.605c.418.23.824.516 1.234.766l3.938 2.422 1.812 1.113 1.02.63c.05.046.125.081.133.155.02.215.008.446.004.66q-.005.44-.004.88l-.008 2.464.004 1.227-.004 1.586c0 .27-.024.644.02.906.167.082.398.223.562.324l.883.532 2.707 1.628 4.094-2.5c.046-.109.03-.761.03-.918v-5.445l-.003-.96.012-.528c.05-.05.144-.121.207-.156l1.418-.86 1.402-.883.027.028c.067.176.028 2.047.024 2.37l-.004 5.34.004 2.72-.008 1.328c-.137.109-.527.347-.692.445l-1.55.957-3.27 2.004-1.562.96c-.172-.058-.883-.51-1.07-.624l-1.184-.719-3.02-1.828q-.674-.398-1.347-.809c-.204-.12-.657-.37-.813-.515-.031-.2-.016-.582-.012-.801v-6.285l-.011-.793c-.09-.078-.512-.313-.637-.387l-1.254-.77c-.055.243-.035 1.153-.035 1.45v3.117l.004 3.555v1.078l.02.758c.202.136.421.253.632.375l.906.53 3.172 1.911 2.137 1.297a3 3 0 0 1-.176.12l-1.465.919-1.023.633c-.207.129-.406.285-.633.375-.113-.047-.566-.34-.695-.422l-1.352-.824-2.726-1.653-1.852-1.129c-.027-.476-.008-1.023-.008-1.507v-2.633l.004-8.395-.004-3.543a59 59 0 0 1 0-1.176l.012-.5m24.497-.113c.065.098.023 2.715.023 2.98v10.419l.003 3.148.012 1.453c-.117.117-.371.258-.515.344l-.86.523-3.816 2.313q-1.56.96-3.137 1.898l-.742.453c-.207.13-.399.266-.621.348-.153-.078-.434-.273-.598-.375l-1.281-.8c-.172-.106-.45-.325-.625-.387-.102-.04-.676.375-.781.433l-1.844 1.153-.801-.512c-.195-.11-.484-.309-.687-.438.125-.136.718-.496.91-.613l1.824-1.137c.367-.21.926-.672 1.293-.804.039.304 0 .78.031 1.144.05-.02.082-.039.129-.066l2.297-1.407 5.433-3.304 1.31-.809c.07-.05.034-1.703.034-1.91V9.25l-.004-1.73.028-1.13c.152-.156 1.465-.945 1.687-1.081l1.297-.817m0 0"/></svg>